<svg width="33" height="33" viewBox="0 0 33 33" version="1.1" xmlns="http://www.w3.org/2000/svg" xmlns:xlink="http://www.w3.org/1999/xlink">
<title>Vector</title>
<desc>Created using Figma</desc>
<g id="Canvas" transform="translate(-7203 -1229)">
<g id="Vector">
<use xlink:href="#path0_fill" transform="translate(7203 1229)" fill="#5C58D7"/>
<use xlink:href="#path1_fill" transform="translate(7203 1229)" fill="#5C58D7"/>
<use xlink:href="#path2_fill" transform="translate(7203 1229)" fill="#5C58D7"/>
<use xlink:href="#path3_fill" transform="translate(7203 1229)" fill="#5C58D7"/>
<use xlink:href="#path4_fill" transform="translate(7203 1229)" fill="#5C58D7"/>
</g>
</g>
<defs>
<path id="path0_fill" d="M 23.5531 26.9019L 16.7815 26.9019C 16.7815 25.6722 17.0259 24.4545 17.5006 23.3183C 17.9754 22.1822 18.6712 21.1499 19.5485 20.2803C 20.4257 19.4108 21.4671 18.721 22.6133 18.2504C 23.7594 17.7798 24.9879 17.5376 26.2284 17.5376L 33 17.5376C 33 20.0212 32.0047 22.403 30.2331 24.1592C 28.4614 25.9153 26.0586 26.9019 23.5531 26.9019Z"/>
<path id="path1_fill" d="M 26.5724 8.82497L 26.5724 0C 24.0669 6.65378e-16 21.6641 0.986599 19.8924 2.74276C 18.1208 4.49892 17.1255 6.88078 17.1255 9.36436L 17.1255 18.1856C 19.6303 18.1856 22.0326 17.1995 23.8041 15.4442C 25.5757 13.6888 26.5714 11.3079 26.5724 8.82497Z"/>
<path id="path2_fill" d="M 26.5724 33C 24.4676 30.6289 21.0214 29.082 17.1255 29.082C 13.2296 29.082 9.78335 30.6289 7.67857 33L 26.5724 33Z"/>
<path id="path3_fill" d="M 8.10924 14.6496C 10.0104 14.65 11.8534 15.2999 13.3277 16.4898C 14.802 17.6796 15.8176 19.3368 16.2034 21.1822C 16.0821 18.7806 15.0335 16.5174 13.2748 14.8612C 11.5161 13.2051 9.18219 12.283 6.75644 12.286L 5.11076e-06 12.286C -0.00201673 14.2087 0.595898 16.0849 1.71179 17.6574C 2.48601 16.7168 3.46182 15.9588 4.56839 15.4385C 5.67496 14.9182 6.88451 14.6488 8.10924 14.6496Z"/>
<path id="path4_fill" d="M 14.8051 22.849C 14.8044 24.1625 14.4107 25.4463 13.6739 26.5381C 12.9371 27.6298 11.8903 28.4804 10.6657 28.9824C 9.44124 29.4844 8.09407 29.6151 6.79459 29.3582C 5.49511 29.1012 4.30169 28.468 3.36524 27.5387C 2.42879 26.6094 1.79138 25.4257 1.5336 24.1372C 1.27582 22.8488 1.40926 21.5136 1.91704 20.3003C 2.42481 19.0871 3.28413 18.0504 4.38631 17.3212C 5.4885 16.5921 6.78405 16.2033 8.10913 16.2041C 8.98896 16.2046 9.86007 16.3768 10.6727 16.711C 11.4854 17.0453 12.2237 17.5349 12.8455 18.1519C 13.4672 18.7689 13.9603 19.5013 14.2966 20.3073C 14.6328 21.1132 14.8056 21.9769 14.8051 22.849ZM 11.8766 22.0699L 8.89134 22.0699L 8.89134 19.1033L 7.32315 19.1033L 7.32315 22.0624L 4.33792 22.0624L 4.33792 23.6207L 7.32315 23.6207L 7.32315 26.5948L 8.89512 26.5948L 8.89512 23.6356L 11.8803 23.6356L 11.8766 22.0699Z"/>
</defs>
</svg>
