<svg width="28" height="31" viewBox="0 0 28 31" version="1.1" xmlns="http://www.w3.org/2000/svg" xmlns:xlink="http://www.w3.org/1999/xlink">
<title>Vector</title>
<desc>Created using Figma</desc>
<g id="Canvas" transform="translate(-6921 -1230)">
<g id="Vector">
<use xlink:href="#path0_fill" transform="translate(6921 1230)" fill="#5C58D7"/>
<use xlink:href="#path1_fill" transform="translate(6921 1230)" fill="#5C58D7"/>
</g>
</g>
<defs>
<path id="path0_fill" d="M 28 0L 0 0L 0 7.15785L 28 7.15785L 28 0Z"/>
<path id="path1_fill" d="M 1.81899e-12 8.61011L 1.81899e-12 28.3512C -3.91808e-07 28.6994 0.0677056 29.0441 0.199245 29.3657C 0.330784 29.6873 0.523576 29.9795 0.766591 30.2255C 1.00961 30.4715 1.29808 30.6665 1.6155 30.7994C 1.93293 30.9323 2.27307 31.0004 2.61649 30.9999L 25.3835 30.9999C 25.7269 31.0004 26.0671 30.9323 26.3845 30.7994C 26.7019 30.6665 26.9904 30.4715 27.2334 30.2255C 27.4764 29.9795 27.6692 29.6873 27.8008 29.3657C 27.9323 29.0441 28 28.6994 28 28.3512L 28 8.61011L 1.81899e-12 8.61011ZM 8.59535 18.6527L 22.8341 18.6527L 22.8341 20.2531L 8.59535 20.2531L 8.59535 18.6527ZM 4.6055 27.1669C 4.2324 27.1669 3.86769 27.0547 3.55747 26.8446C 3.24725 26.6344 3.00547 26.3357 2.86269 25.9863C 2.71991 25.6368 2.68256 25.2523 2.75534 24.8813C 2.82813 24.5103 3.00779 24.1695 3.27161 23.9021C 3.53543 23.6346 3.87155 23.4525 4.23748 23.3787C 4.6034 23.3049 4.9827 23.3427 5.32739 23.4875C 5.67209 23.6322 5.9667 23.8774 6.17398 24.1919C 6.38126 24.5064 6.4919 24.8761 6.4919 25.2544C 6.4919 25.5056 6.4431 25.7542 6.3483 25.9863C 6.2535 26.2183 6.11455 26.4291 5.93938 26.6067C 5.76421 26.7843 5.55626 26.9252 5.32739 27.0213C 5.09852 27.1174 4.85322 27.1669 4.6055 27.1669ZM 4.6055 21.3694C 4.23145 21.3702 3.86559 21.2585 3.5542 21.0484C 3.24282 20.8383 2.99992 20.5392 2.85623 20.1891C 2.71255 19.839 2.67455 19.4535 2.74705 19.0815C 2.81954 18.7094 2.99927 18.3676 3.26348 18.0992C 3.52769 17.8307 3.86451 17.6478 4.23131 17.5735C 4.59811 17.4993 4.97839 17.537 5.32404 17.6819C 5.66969 17.8269 5.96515 18.0725 6.17304 18.3877C 6.38093 18.703 6.4919 19.0737 6.4919 19.4529C 6.4919 19.9605 6.29328 20.4474 5.93962 20.8067C 5.58597 21.166 5.10616 21.3683 4.6055 21.3694ZM 4.6055 15.5679C 4.2324 15.5679 3.86769 15.4557 3.55747 15.2456C 3.24725 15.0354 3.00547 14.7368 2.86269 14.3873C 2.71991 14.0378 2.68256 13.6533 2.75534 13.2823C 2.82813 12.9113 3.00779 12.5705 3.27161 12.3031C 3.53543 12.0356 3.87155 11.8535 4.23748 11.7797C 4.6034 11.7059 4.9827 11.7437 5.32739 11.8885C 5.67209 12.0332 5.9667 12.2784 6.17398 12.5929C 6.38126 12.9074 6.4919 13.2772 6.4919 13.6554C 6.4919 14.1626 6.29315 14.6491 5.93938 15.0077C 5.58561 15.3664 5.1058 15.5679 4.6055 15.5679ZM 23.7378 26.0546L 8.59535 26.0546L 8.59535 24.4542L 23.7378 24.4542L 23.7378 26.0546ZM 24.9218 14.4516L 8.59535 14.4516L 8.59535 12.8512L 24.9336 12.8512L 24.9218 14.4516Z"/>
</defs>
</svg>
