<svg width="97" height="89" viewBox="0 0 97 89" version="1.1" xmlns="http://www.w3.org/2000/svg" xmlns:xlink="http://www.w3.org/1999/xlink">
<title>Vector</title>
<desc>Created using Figma</desc>
<g id="Canvas" transform="translate(-9126 -6373)">
<g id="Vector">
<use xlink:href="#path0_fill" transform="translate(9126 6373)" fill="#E8CEC7"/>
<use xlink:href="#path1_fill" transform="translate(9126 6373)" fill="#E8CEC7"/>
<use xlink:href="#path2_fill" transform="translate(9126 6373)" fill="#E8CEC7"/>
<use xlink:href="#path3_fill" transform="translate(9126 6373)" fill="#E8CEC7"/>
<use xlink:href="#path4_fill" transform="translate(9126 6373)" fill="#E8CEC7"/>
<use xlink:href="#path5_fill" transform="translate(9126 6373)" fill="#E8CEC7"/>
<use xlink:href="#path6_fill" transform="translate(9126 6373)" fill="#E8CEC7"/>
</g>
</g>
<defs>
<path id="path0_fill" d="M 71.2285 71.82L 53.3085 71.82C 53.3085 68.537 53.9552 65.2861 55.2115 62.2529C 56.4679 59.2198 58.3094 56.4638 60.6308 54.1423C 62.9523 51.8209 65.7083 49.9794 68.7414 48.723C 71.7746 47.4666 75.0255 46.82 78.3085 46.82L 96.2285 46.82C 96.2285 53.4504 93.5946 59.8093 88.9062 64.4977C 84.2178 69.1861 77.8589 71.82 71.2285 71.82Z"/>
<path id="path1_fill" d="M 8.89844 32.8L 26.8084 32.8C 33.4389 32.8 39.7977 35.4339 44.4861 40.1223C 49.1745 44.8107 51.8084 51.1696 51.8084 57.8L 33.8984 57.8C 27.268 57.8 20.9092 55.1661 16.2208 50.4777C 11.5324 45.7893 8.89844 39.4304 8.89844 32.8Z"/>
<path id="path2_fill" d="M 79.2178 23.56L 79.2178 0C 72.5874 1.77636e-15 66.2285 2.63392 61.5401 7.32233C 56.8517 12.0107 54.2178 18.3696 54.2178 25L 54.2178 48.55C 60.8465 48.55 67.2038 45.9174 71.8919 41.2312C 76.58 36.545 79.2151 30.1887 79.2178 23.56Z"/>
<path id="path3_fill" d="M 79.2178 88.1C 73.6478 81.77 64.5278 77.64 54.2178 77.64C 43.9078 77.64 34.7878 81.77 29.2178 88.1L 79.2178 88.1Z"/>
<path id="path4_fill" d="M 14.5382 28.64L 3.77824 17.87C 3.36318 17.4549 2.80023 17.2218 2.21324 17.2218C 1.62626 17.2218 1.06331 17.4549 0.648244 17.87C 0.23318 18.2851 4.996e-16 18.848 0 19.435C 1.66533e-16 20.022 0.23318 20.5849 0.648244 21L 8.27824 28.64L 14.5382 28.64Z"/>
<path id="path5_fill" d="M 24.5186 28.64L 35.2786 17.87C 35.6936 17.4549 36.2566 17.2218 36.8436 17.2218C 37.4305 17.2218 37.9935 17.4549 38.4086 17.87C 38.8236 18.2851 39.0568 18.848 39.0568 19.435C 39.0568 20.022 38.8236 20.5849 38.4086 21L 30.7786 28.64L 24.5186 28.64Z"/>
<path id="path6_fill" d="M 21.7386 28.64L 21.7386 8.95C 21.7386 8.36255 21.5052 7.79915 21.0898 7.38376C 20.6744 6.96837 20.111 6.735 19.5236 6.735C 18.9361 6.735 18.3727 6.96837 17.9574 7.38376C 17.542 7.79915 17.3086 8.36255 17.3086 8.95L 17.3086 28.64L 21.7386 28.64Z"/>
</defs>
</svg>
