<svg width="27" height="31" viewBox="0 0 27 31" version="1.1" xmlns="http://www.w3.org/2000/svg" xmlns:xlink="http://www.w3.org/1999/xlink">
<title>Vector</title>
<desc>Created using Figma</desc>
<g id="Canvas" transform="translate(-7012 -1230)">
<g id="Vector">
<use xlink:href="#path0_fill" transform="translate(7012 1230)" fill="#5C58D7"/>
<use xlink:href="#path1_fill" transform="translate(7012 1230)" fill="#5C58D7"/>
</g>
</g>
<defs>
<path id="path0_fill" d="M 3.96293 0C 3.72856 8.32882e-17 3.50378 0.0918949 3.33806 0.255469C 3.17233 0.419043 3.07923 0.640897 3.07923 0.872225L 3.07923 2.84874L 1.05239 2.84874C 0.790061 2.84874 0.53848 2.95159 0.352988 3.13467C 0.167496 3.31776 0.0632881 3.56607 0.0632881 3.82499C 0.0632881 4.08391 0.167496 4.33222 0.352988 4.5153C 0.53848 4.69838 0.790061 4.80124 1.05239 4.80124L 3.07923 4.80124L 3.07923 10.3067L 1.05239 10.3067C 0.790061 10.3067 0.53848 10.4095 0.352988 10.5926C 0.167496 10.7757 0.0632881 11.024 0.0632881 11.2829C 0.0632881 11.5418 0.167496 11.7901 0.352988 11.9732C 0.53848 12.1563 0.790061 12.2592 1.05239 12.2592L 3.07923 12.2592L 3.07923 17.7646L 1.05239 17.7646C 0.789274 17.7655 0.537203 17.8691 0.351099 18.0527C 0.213399 18.1894 0.119809 18.3633 0.082131 18.5525C 0.0444528 18.7417 0.064374 18.9377 0.139382 19.1157C 0.214391 19.2937 0.341127 19.4458 0.50361 19.5529C 0.666092 19.6599 0.857045 19.717 1.05239 19.7171L 3.07923 19.7171L 3.07923 25.2065L 1.05239 25.2065C 0.917442 25.198 0.782157 25.2168 0.654889 25.2619C 0.527621 25.307 0.411073 25.3774 0.312446 25.4687C 0.213818 25.56 0.135206 25.6703 0.0814664 25.7928C 0.0277264 25.9152 -3.60039e-16 26.0473 0 26.1808C -5.17556e-16 26.3142 0.0277264 26.4463 0.0814664 26.5687C 0.135206 26.6912 0.213818 26.8015 0.312446 26.8928C 0.411073 26.9841 0.527621 27.0545 0.654889 27.0996C 0.782157 27.1447 0.917442 27.1635 1.05239 27.155L 3.07923 27.155L 3.07923 30.1278C 3.07923 30.3591 3.17233 30.581 3.33806 30.7445C 3.50378 30.9081 3.72856 31 3.96293 31L 21.5032 31L 21.5032 0L 3.96293 0ZM 6.6262 26.8909C 6.46425 27.0522 6.25061 27.153 6.02176 27.176C 5.79291 27.1991 5.56304 27.143 5.37141 27.0174C 5.17978 26.8918 5.03827 26.7044 4.97105 26.4873C 4.90383 26.2701 4.91507 26.0367 5.00285 25.8268C 5.09062 25.6169 5.24949 25.4436 5.45232 25.3365C 5.65515 25.2294 5.88937 25.1951 6.11498 25.2395C 6.34058 25.2839 6.54358 25.4042 6.68931 25.5799C 6.83504 25.7555 6.91446 25.9757 6.91401 26.2028C 6.9135 26.4606 6.81009 26.7078 6.6262 26.8909ZM 6.6262 19.433C 6.46437 19.5941 6.25093 19.6949 6.02226 19.718C 5.7936 19.7412 5.56387 19.6854 5.37225 19.56C 5.18064 19.4347 5.039 19.2477 4.9715 19.0308C 4.90399 18.8139 4.9148 18.5806 5.00207 18.3707C 5.08935 18.1608 5.24769 17.9873 5.45009 17.8798C 5.65249 17.7722 5.88642 17.7373 6.11199 17.781C 6.33756 17.8247 6.5408 17.9442 6.68706 18.1192C 6.83331 18.2943 6.91352 18.514 6.91401 18.7408C 6.91457 19 6.81108 19.2489 6.6262 19.433ZM 6.6262 11.9751C 6.46389 12.1372 6.24958 12.2388 6.01987 12.2623C 5.79015 12.2859 5.55928 12.23 5.36666 12.1043C 5.17403 11.9785 5.03161 11.7907 4.96369 11.5728C 4.89578 11.3549 4.90658 11.1205 4.99427 10.9097C 5.08195 10.6988 5.24108 10.5245 5.44448 10.4165C 5.64788 10.3085 5.88294 10.2736 6.10954 10.3177C 6.33613 10.3617 6.54021 10.482 6.68693 10.6581C 6.83364 10.8341 6.91391 11.055 6.91401 11.2829C 6.91457 11.5421 6.81108 11.791 6.6262 11.9751ZM 6.6262 4.51717C 6.46389 4.67932 6.24958 4.78085 6.01987 4.80441C 5.79015 4.82797 5.55928 4.7721 5.36666 4.64634C 5.17403 4.52059 5.03161 4.33274 4.96369 4.11487C 4.89578 3.897 4.90658 3.66261 4.99427 3.45173C 5.08195 3.24085 5.24108 3.06655 5.44448 2.95858C 5.64788 2.85061 5.88294 2.81567 6.10954 2.85973C 6.33613 2.90379 6.54021 3.02411 6.68693 3.20015C 6.83364 3.37619 6.91391 3.59704 6.91401 3.82499C 6.91457 4.0842 6.81108 4.33307 6.6262 4.51717Z"/>
<path id="path1_fill" d="M 27.0003 0.872225L 27.0003 30.1278C 27.0003 30.3591 26.9072 30.581 26.7415 30.7445C 26.5758 30.9081 26.351 31 26.1166 31L 23.125 31L 23.125 0L 26.1166 0C 26.351 5.55255e-17 26.5758 0.0918949 26.7415 0.255469C 26.9072 0.419043 27.0003 0.640897 27.0003 0.872225Z"/>
</defs>
</svg>
