<svg width="39" height="29" viewBox="0 0 39 29" version="1.1" xmlns="http://www.w3.org/2000/svg" xmlns:xlink="http://www.w3.org/1999/xlink">
<title>Vector</title>
<desc>Created using Figma</desc>
<g id="Canvas" transform="translate(-10397 -6672)">
<g id="Vector">
<use xlink:href="#path0_fill" transform="translate(10397 6672)" fill="#E8CEC7"/>
<use xlink:href="#path1_fill" transform="translate(10397 6672)" fill="#E8CEC7"/>
</g>
</g>
<defs>
<path id="path0_fill" d="M 17.298 7.55908L 0.0561564 24.57C 1.47941 25.9744 3.16948 27.0885 5.02976 27.8486C 6.89004 28.6088 8.88404 29 10.8978 29C 12.9115 29 14.9055 28.6088 16.7658 27.8486C 18.6261 27.0885 20.3162 25.9744 21.7394 24.57L 39 7.55908C 37.5755 6.15357 35.8839 5.0386 34.022 4.27788C 32.1602 3.51716 30.1645 3.12561 28.149 3.12561C 26.1336 3.12561 24.1379 3.51716 22.276 4.27788C 20.4141 5.0386 18.7226 6.15357 17.298 7.55908ZM 15.7365 23.8603C 15.3295 24.2625 14.8105 24.5367 14.2453 24.648C 13.6802 24.7593 13.0942 24.7029 12.5616 24.4858C 12.0289 24.2687 11.5736 23.9006 11.2533 23.4283C 10.933 22.956 10.762 22.4006 10.762 21.8324C 10.762 21.2642 10.933 20.7088 11.2533 20.2365C 11.5736 19.7642 12.0289 19.3962 12.5616 19.1791C 13.0942 18.9619 13.6802 18.9055 14.2453 19.0168C 14.8105 19.1282 15.3295 19.4023 15.7365 19.8046C 16.2801 20.3434 16.5852 21.0725 16.5852 21.8324C 16.5852 22.5924 16.2801 23.3214 15.7365 23.8603ZM 21.5898 18.0901C 21.1828 18.4923 20.6638 18.7665 20.0986 18.8778C 19.5334 18.9892 18.9474 18.9327 18.4148 18.7156C 17.8822 18.4985 17.4269 18.1305 17.1066 17.6581C 16.7862 17.1858 16.6152 16.6304 16.6152 16.0622C 16.6152 15.4941 16.7862 14.9387 17.1066 14.4663C 17.4269 13.994 17.8822 13.626 18.4148 13.4089C 18.9474 13.1918 19.5334 13.1353 20.0986 13.2467C 20.6638 13.358 21.1828 13.6321 21.5898 14.0344C 21.8601 14.3006 22.0745 14.6167 22.2208 14.9647C 22.3671 15.3126 22.4424 15.6856 22.4424 16.0622C 22.4424 16.4389 22.3671 16.8119 22.2208 17.1598C 22.0745 17.5078 21.8601 17.8239 21.5898 18.0901ZM 23.3196 12.3291C 22.9129 11.9273 22.6361 11.4157 22.5242 10.8589C 22.4124 10.3021 22.4704 9.72513 22.691 9.20083C 22.9117 8.67654 23.285 8.22847 23.7638 7.91325C 24.2427 7.59802 24.8056 7.42978 25.3813 7.42978C 25.9571 7.42978 26.52 7.59802 26.9989 7.91325C 27.4777 8.22847 27.851 8.67654 28.0716 9.20083C 28.2923 9.72513 28.3503 10.3021 28.2384 10.8589C 28.1266 11.4157 27.8498 11.9273 27.4431 12.3291C 26.8953 12.8681 26.1529 13.1708 25.379 13.1708C 24.6051 13.1708 23.8627 12.8681 23.3149 12.3291L 23.3196 12.3291Z"/>
<path id="path1_fill" d="M 31.5057 1.27272C 30.4007 1.06531 29.2785 0.960391 28.1536 0.959328C 25.8525 0.954452 23.5732 1.40007 21.4481 2.27033C 19.3229 3.14059 17.3943 4.41818 15.7739 6.02897L 5.81119 15.841C 3.21385 14.3981 1.17141 12.1514 0 9.44867L 19.9348 1.01002C 23.5673 -0.533911 27.8357 -0.197471 31.5057 1.27272Z"/>
</defs>
</svg>
