<svg width="42" height="32" viewBox="0 0 42 32" version="1.1" xmlns="http://www.w3.org/2000/svg" xmlns:xlink="http://www.w3.org/1999/xlink">
<title>Vector</title>
<desc>Created using Figma</desc>
<g id="Canvas" transform="translate(-10394 -6588)">
<g id="Vector">
<use xlink:href="#path0_fill" transform="translate(10394 6588)" fill="#E8CEC7"/>
<use xlink:href="#path1_fill" transform="translate(10394 6588)" fill="#E8CEC7"/>
<use xlink:href="#path2_fill" transform="translate(10394 6588)" fill="#E8CEC7"/>
</g>
</g>
<defs>
<path id="path0_fill" d="M 25.6226 4.37679C 25.774 4.60172 25.9142 4.83398 26.0426 5.07271C 26.2524 5.47797 26.8821 6.79156 26.8821 7.12695C 26.8821 7.46234 21.0017 9.0135 15.5412 13.8472C 11.8649 12.4582 3.76703 9.3296 0.786026 13.8472C 0.71882 13.6963 0.655815 13.5412 0.59281 13.3777C 0.529805 13.2142 0.475201 13.0465 0.420597 12.8704C 0.264871 12.3628 0.146941 11.8443 0.0677689 11.3193C -0.671489 6.26333 4.72174 1.29543 12.1227 0.209616C 13.0698 0.0703043 14.0258 0.000245738 14.9831 0C 19.0281 0 22.6025 1.29124 24.7825 3.41674C 24.8875 3.51736 24.9883 3.62217 25.0849 3.72698C 25.2759 3.93366 25.4553 4.15058 25.6226 4.37679Z"/>
<path id="path1_fill" d="M 41.4073 9.75973C 41.1659 9.24158 40.885 8.74264 40.5673 8.26726C 40.4707 8.12473 40.374 7.98638 40.2732 7.84803C 40.0848 7.59731 39.8785 7.36053 39.6558 7.13953C 39.5466 7.03472 39.4416 6.9383 39.3282 6.84188C 39.2148 6.74545 39.1097 6.6616 38.9963 6.58195C 38.8829 6.5023 38.6519 6.35557 38.4755 6.25914C 38.2991 6.16272 38.2361 6.13756 38.1143 6.08306C 37.8737 5.97928 37.625 5.89515 37.3708 5.83152C 37.2434 5.79854 37.1144 5.77196 36.9844 5.75187C 36.6515 5.69411 36.3142 5.66605 35.9763 5.66802C 35.6249 5.6687 35.274 5.69391 34.9262 5.74349L 34.3802 5.83152C 33.376 6.03771 32.392 6.33233 31.4399 6.71191C 31.0199 6.86703 30.5999 7.03891 30.1798 7.21918C 29.6548 7.44138 29.1172 7.68034 28.5711 7.92769L 28.5459 7.92769L 27.8739 8.23373L 26.933 8.65296L 26.8406 8.69488L 26.1433 9.01769C 22.363 10.7491 18.9356 12.2164 17.1672 14.3168L 17.4192 14.4132C 18.2593 14.7193 19.0784 15.0211 19.8638 15.3271C 20.7627 15.6751 21.6196 16.0314 22.4218 16.4088C 24.858 17.5533 26.7776 18.9242 27.731 20.9868C 28.3226 22.3111 28.4912 23.7851 28.2141 25.2084L 28.6341 25.1372C 28.7937 25.1078 28.9491 25.0743 29.1088 25.0366C 29.4238 24.9653 29.7388 24.8856 30.058 24.7976C 31.0375 24.5233 31.9939 24.1729 32.9185 23.7495C 39.7482 20.6724 43.5369 14.3964 41.4073 9.75973ZM 32.4858 21.7162C 32.3271 21.7162 32.172 21.6693 32.0401 21.5813C 31.9082 21.4933 31.8053 21.3682 31.7446 21.2219C 31.6839 21.0756 31.668 20.9146 31.699 20.7593C 31.7299 20.604 31.8063 20.4613 31.9185 20.3493C 32.0307 20.2373 32.1737 20.1611 32.3293 20.1302C 32.4849 20.0993 32.6462 20.1151 32.7928 20.1757C 32.9394 20.2363 33.0647 20.339 33.1529 20.4706C 33.241 20.6023 33.2881 20.7571 33.2881 20.9155C 33.2881 21.1279 33.2036 21.3315 33.0531 21.4817C 32.9027 21.6319 32.6986 21.7162 32.4858 21.7162ZM 34.964 19.6201C 34.7378 19.6184 34.5172 19.5502 34.3296 19.4241C 34.142 19.2979 33.9959 19.1194 33.9093 18.9108C 33.8228 18.7022 33.7998 18.4728 33.8431 18.2513C 33.8865 18.0297 33.9943 17.8258 34.1531 17.665C 34.3118 17.5043 34.5146 17.3937 34.7359 17.3473C 34.9572 17.3008 35.1874 17.3205 35.3976 17.4039C 35.6078 17.4872 35.7887 17.6305 35.9178 17.8159C 36.0469 18.0013 36.1183 18.2205 36.1233 18.4462C 36.1255 18.5992 36.0972 18.7511 36.0398 18.8929C 35.9824 19.0348 35.8973 19.1638 35.7893 19.2723C 35.6813 19.3809 35.5527 19.4668 35.4109 19.5251C 35.2692 19.5834 35.1173 19.6128 34.964 19.6117L 34.964 19.6201Z"/>
<path id="path2_fill" d="M 26.6602 23.2129C 26.6602 23.1123 26.635 23.0158 26.6182 22.9236C 26.6204 22.9111 26.6204 22.8984 26.6182 22.8859C 26.6182 22.7978 26.5846 22.7098 26.5636 22.626C 26.5426 22.5421 26.5174 22.4289 26.488 22.3283L 26.3998 22.0768C 26.3704 21.9887 26.3326 21.9049 26.2948 21.8168L 26.1814 21.5779C 26.1011 21.4154 26.0098 21.2586 25.9084 21.1083L 25.9084 21.0832C 25.8604 21.0065 25.8086 20.9324 25.753 20.861C 25.7026 20.7911 25.648 20.7199 25.5892 20.6472C 25.3898 20.4032 25.1722 20.1748 24.9381 19.9638C 24.8793 19.9093 24.8163 19.8506 24.7491 19.7961C 24.6819 19.7416 24.4803 19.5698 24.3291 19.4608C 23.9564 19.182 23.5664 18.9272 23.1614 18.6978L 22.8589 18.5259L 22.5523 18.3624C 22.2373 18.1989 21.9097 18.0396 21.5694 17.8803L 21.225 17.7251C 20.763 17.5197 20.2841 17.3059 19.7843 17.1214C 19.2887 16.9244 18.7804 16.7274 18.2554 16.5345L 16.6341 15.9308L 16.5913 15.9308C 16.5913 15.9308 16.2938 15.8679 16.319 15.8134L 15.8234 15.629L 14.7439 15.2307L 14.6179 15.1804L 14.4919 15.1343C 13.4922 14.7612 12.5261 14.409 11.5937 14.0988L 11.1736 13.9646C 10.4722 13.7382 9.79172 13.5454 9.13227 13.3861L 8.71223 13.2897L 8.60722 13.2687L 8.3258 13.2142L 7.98137 13.1555L 7.81336 13.1304C 7.65795 13.1052 7.51094 13.0884 7.35973 13.0717C 7.20851 13.0549 7.13291 13.0465 7.0237 13.0423L 6.36005 13.0423C 6.25504 13.0423 6.14583 13.0423 6.04502 13.0423L 5.7426 13.0423C 5.5736 13.0545 5.40536 13.0755 5.23856 13.1052L 5.06214 13.1345C 4.90673 13.1681 4.75552 13.2016 4.60431 13.2477L 4.39849 13.3106L 4.19688 13.3819L 3.99526 13.4615C 3.86505 13.5202 3.73484 13.5831 3.61303 13.6502C 3.49122 13.7173 3.36101 13.7927 3.2392 13.8724L 3.05859 13.9982C 2.94098 14.0862 2.82337 14.1826 2.70996 14.279L 2.54195 14.4342C 2.48314 14.4887 2.42854 14.5432 2.37393 14.6019C 2.31933 14.6605 2.15972 14.8366 2.05471 14.9666C 1.95286 15.0901 1.85752 15.2189 1.76908 15.3523C 1.71448 15.4277 1.65988 15.5074 1.60947 15.5912C 1.55907 15.6751 1.52967 15.717 1.49606 15.7799C 1.42579 15.8911 1.3613 16.0058 1.30285 16.1237C 1.26504 16.1866 1.23144 16.2536 1.19784 16.3207C 1.16424 16.3878 1.10963 16.4968 1.06763 16.5848L 0.941619 16.8657C 0.857612 17.053 0.777806 17.25 0.7022 17.4568C -1.08714 22.2193 3.15099 28.2143 10.1613 30.8136C 10.3966 30.9016 10.6318 30.9813 10.867 31.0609L 11.3962 31.2244C 11.6763 31.3083 11.9563 31.3837 12.2363 31.4508L 12.7782 31.5808L 13.4586 31.7191C 13.7316 31.7694 14.0005 31.8113 14.2693 31.8491C 14.4709 31.8784 14.6683 31.8994 14.8699 31.9203C 15.0715 31.9413 15.2647 31.9581 15.4622 31.9707L 15.9704 32L 17.5959 32C 17.8522 32 18.1042 31.9623 18.3562 31.9329C 18.4864 31.9329 18.6166 31.9036 18.7426 31.8826C 18.8686 31.8617 19.0282 31.8407 19.1627 31.8155L 19.4021 31.7736L 19.4483 31.7736C 19.5659 31.7527 19.6835 31.7317 19.7969 31.7023L 19.8935 31.6814C 20.0111 31.652 20.1287 31.6269 20.2421 31.5933C 20.3556 31.5598 20.5404 31.5137 20.6874 31.4676L 20.7378 31.4676C 20.889 31.4215 21.036 31.3753 21.1578 31.3208C 21.2796 31.2663 21.5232 31.1909 21.6997 31.1112C 21.8761 31.0316 21.9265 31.0148 22.0399 30.9645L 22.3213 30.8303L 22.5313 30.7213C 22.7868 30.5902 23.0337 30.4432 23.2706 30.2811C 23.3637 30.225 23.4535 30.1634 23.5394 30.0967C 23.6822 30.0003 23.8208 29.8913 23.9594 29.7823C 24.098 29.6733 24.2955 29.493 24.4509 29.3421C 24.6063 29.1911 24.7575 29.0276 24.8961 28.8641C 25.0347 28.7006 25.1691 28.5288 25.2909 28.3527C 25.4748 28.0854 25.6391 27.8052 25.7824 27.5142C 25.8328 27.4136 25.879 27.313 25.9252 27.2082C 25.9714 27.1034 26.005 27.0153 26.0428 26.9147C 26.1352 26.6674 26.2192 26.4242 26.2864 26.1894C 26.3116 26.1098 26.3326 26.0343 26.3536 25.9589C 26.3746 25.8834 26.3956 25.8079 26.4124 25.7325C 26.4292 25.657 26.4502 25.5774 26.467 25.5019C 26.53 25.2126 26.5804 24.9317 26.614 24.6634C 26.6875 24.1835 26.703 23.6965 26.6602 23.2129ZM 8.3594 19.6117C 8.14774 19.6117 7.94475 19.5278 7.79509 19.3784C 7.64542 19.229 7.56134 19.0264 7.56134 18.8151C 7.55723 18.793 7.55723 18.7702 7.56134 18.7481C 7.57927 18.5498 7.67134 18.3655 7.81921 18.2319C 7.96709 18.0983 8.15994 18.0251 8.3594 18.027C 8.54245 18.0277 8.71973 18.0909 8.86184 18.206C 9.00395 18.3212 9.10233 18.4814 9.14067 18.66C 9.15616 18.7145 9.16324 18.7711 9.16167 18.8277C 9.15727 19.0372 9.07081 19.2366 8.92083 19.3831C 8.77085 19.5297 8.5693 19.6117 8.3594 19.6117ZM 12.2153 19.9722C 12.1248 19.9722 12.0362 19.9454 11.9609 19.8952C 11.8857 19.845 11.827 19.7736 11.7923 19.6901C 11.7577 19.6066 11.7486 19.5148 11.7663 19.4261C 11.7839 19.3375 11.8275 19.256 11.8916 19.1921C 11.9556 19.1282 12.0372 19.0847 12.126 19.0671C 12.2148 19.0494 12.3069 19.0585 12.3905 19.0931C 12.4742 19.1277 12.5457 19.1862 12.596 19.2614C 12.6463 19.3365 12.6731 19.4249 12.6731 19.5153C 12.6731 19.6365 12.6249 19.7527 12.539 19.8384C 12.4532 19.9241 12.3367 19.9722 12.2153 19.9722ZM 17.7009 29.6146C 17.6104 29.6146 17.5219 29.5878 17.4466 29.5376C 17.3713 29.4873 17.3126 29.416 17.278 29.3325C 17.2433 29.249 17.2342 29.1571 17.2519 29.0685C 17.2696 28.9798 17.3132 28.8984 17.3772 28.8345C 17.4412 28.7706 17.5228 28.7271 17.6116 28.7094C 17.7004 28.6918 17.7925 28.7008 17.8761 28.7354C 17.9598 28.77 18.0313 28.8286 18.0816 28.9037C 18.1319 28.9789 18.1588 29.0672 18.1588 29.1576C 18.1534 29.2751 18.1028 29.386 18.0175 29.4673C 17.9322 29.5485 17.8188 29.5937 17.7009 29.5936L 17.7009 29.6146Z"/>
</defs>
</svg>
