<svg width="30" height="54" viewBox="0 0 30 54" version="1.1" xmlns="http://www.w3.org/2000/svg" xmlns:xlink="http://www.w3.org/1999/xlink">
<title>Vector</title>
<desc>Created using Figma</desc>
<g id="Canvas" transform="translate(-10398 -6502)">
<g id="Vector">
<use xlink:href="#path0_fill" transform="translate(10398 6502)" fill="#E8CEC7"/>
<use xlink:href="#path1_fill" transform="translate(10398 6502)" fill="#E8CEC7"/>
<use xlink:href="#path2_fill" transform="translate(10398 6502)" fill="#E8CEC7"/>
<use xlink:href="#path3_fill" transform="translate(10398 6502)" fill="#E8CEC7"/>
<use xlink:href="#path4_fill" transform="translate(10398 6502)" fill="#E8CEC7"/>
<use xlink:href="#path5_fill" transform="translate(10398 6502)" fill="#E8CEC7"/>
<use xlink:href="#path6_fill" transform="translate(10398 6502)" fill="#E8CEC7"/>
</g>
</g>
<defs>
<path id="path0_fill" d="M 10.5614 10.159C 10.5614 14.5129 12.3446 18.2814 15.0005 20.318C 17.6517 18.2814 19.4397 14.5129 19.4397 10.159C 19.4397 5.80514 17.6517 2.03664 15.0005 0C 12.3446 2.03664 10.5614 5.80514 10.5614 10.159Z"/>
<path id="path1_fill" d="M 19.5719 17.517C 16.581 20.5841 15.2318 24.5558 15.7035 27.9179C 19.0058 28.4017 22.8552 27.0181 25.8461 23.9511C 28.837 20.884 30.1909 16.9317 29.7192 13.5453C 26.4169 13.0616 22.5627 14.45 19.5719 17.517Z"/>
<path id="path2_fill" d="M 3.95708 23.9511C 0.970915 20.8888 -0.383003 16.9317 0.0934629 13.5453C 3.3957 13.0616 7.24517 14.4451 10.2361 17.5122C 13.2269 20.5792 14.5761 24.5509 14.1044 27.9131C 10.821 28.4017 6.94797 27.0181 3.95708 23.9511Z"/>
<path id="path3_fill" d="M 19.6709 30.5109C 16.68 33.5779 15.3308 37.5496 15.8026 40.9118C 19.1048 41.3955 22.9543 40.012 25.9452 36.9449C 28.9361 33.8779 30.2853 29.9062 29.8135 26.544C 26.5301 26.0603 22.6429 27.4438 19.6709 30.5109Z"/>
<path id="path4_fill" d="M 4.05622 36.9449C 1.06533 33.8633 -0.28387 29.911 0.187878 26.544C 3.49012 26.0603 7.33959 27.4438 10.3305 30.5109C 13.3214 33.5779 14.6706 37.5496 14.1988 40.9118C 10.9202 41.3955 7.0471 40.012 4.05622 36.9449Z"/>
<path id="path5_fill" d="M 19.7654 43.5047C 16.7745 46.5718 15.4253 50.5435 15.897 53.9056C 19.1993 54.3894 23.0487 53.0058 26.0396 49.9388C 29.0305 46.8717 30.3797 42.9 29.9079 39.5379C 26.6293 39.0541 22.7562 40.4377 19.7654 43.5047Z"/>
<path id="path6_fill" d="M 4.15527 49.9388C 1.16438 46.8717 -0.184821 42.9 0.286927 39.5379C 3.58917 39.0541 7.43864 40.4377 10.4295 43.5047C 13.4204 46.5718 14.7696 50.5435 14.2979 53.9056C 11.0145 54.3894 7.14143 53.0058 4.15527 49.9388Z"/>
</defs>
</svg>
