<svg width="35" height="34" viewBox="0 0 35 34" version="1.1" xmlns="http://www.w3.org/2000/svg" xmlns:xlink="http://www.w3.org/1999/xlink">
<title>Vector</title>
<desc>Created using Figma</desc>
<g id="Canvas" transform="translate(-10397 -6354)">
<g id="Vector">
<use xlink:href="#path0_fill" transform="translate(10397 6354)" fill="#E8CEC7"/>
<use xlink:href="#path1_fill" transform="translate(10397 6354)" fill="#E8CEC7"/>
</g>
</g>
<defs>
<path id="path0_fill" d="M 27.1368 7.79748C 26.5951 8.40934 25.9673 8.94128 25.2726 9.37705C 25.8853 10.4059 26.2355 11.5665 26.2931 12.7587L 26.3372 14.0678L 25.0827 14.4823C 24.3694 14.7113 23.6239 14.8276 22.8739 14.827C 21.0518 14.7982 19.2811 14.2264 17.7938 13.1863L 17.5199 12.99L 17.2504 13.1863C 15.7579 14.2336 13.9787 14.8088 12.1482 14.8357C 11.3981 14.8364 10.6527 14.72 9.93942 14.491L 8.68042 14.0765L 8.72902 12.7675C 8.77571 11.5748 9.11531 10.4112 9.71854 9.37705C 9.02388 8.94128 8.39609 8.40934 7.85435 7.79748C 3.1276 9.93994 0 13.8278 0 19.125C 0 27.5115 7.83668 34 17.5022 34C 27.1677 34 35 27.5115 35 19.125C 35 13.8234 31.8724 9.93994 27.1368 7.79748Z"/>
<path id="path1_fill" d="M 10.5136 12.2918C 10.7515 10.9301 11.4268 9.68016 12.4396 8.7269C 9.13871 7.50513 8.27236 5.82084 8.25179 5.13142C 9.66097 4.04928 11.8167 3.65657 14.0255 4.25873C 14.7595 4.45727 15.4593 4.76319 16.1017 5.16632C 15.9043 4.75341 15.7775 4.3111 15.7262 3.85729C 15.7085 3.6979 15.6996 3.53766 15.6997 3.37731C 15.698 3.20504 15.7098 3.03289 15.7351 2.86242C 15.7975 2.28606 15.9883 1.7305 16.2938 1.2356C 16.5993 0.740699 17.0119 0.318738 17.5021 0C 18.2615 0.504149 18.8216 1.25161 19.088 2.11627C 19.1652 2.36405 19.2199 2.61814 19.2514 2.87551C 19.2767 3.04598 19.2885 3.21813 19.2867 3.3904C 19.2868 3.55075 19.278 3.71099 19.2602 3.87038C 19.209 4.32419 19.0821 4.7665 18.8848 5.17941C 19.5271 4.77628 20.227 4.47036 20.961 4.27182C 23.1521 3.67839 25.3255 4.0711 26.7347 5.14451C 26.4306 5.88615 25.9662 6.55329 25.3741 7.09933C 24.57 7.84593 23.6048 8.40245 22.5513 8.7269C 23.5733 9.69279 24.2493 10.961 24.4773 12.3398C 24.5043 12.5103 24.5205 12.6823 24.5259 12.8547C 22.834 13.4089 20.6518 13.0642 18.7831 11.7813C 18.31 11.4457 17.8759 11.0594 17.4888 10.6294C 17.1045 11.0431 16.6748 11.4133 16.2077 11.7333C 14.3391 13.0162 12.1569 13.3609 10.465 12.8067C 10.4704 12.6343 10.4866 12.4623 10.5136 12.2918Z"/>
</defs>
</svg>
