<svg width="83" height="79" viewBox="0 0 83 79" version="1.1" xmlns="http://www.w3.org/2000/svg" xmlns:xlink="http://www.w3.org/1999/xlink">
<title>Vector</title>
<desc>Created using Figma</desc>
<g id="Canvas" transform="translate(-10758 -6714)">
<g id="Vector">
<use xlink:href="#path0_fill" transform="translate(10758 6714)" fill="#5C58D7"/>
<use xlink:href="#path1_fill" transform="translate(10758 6714)" fill="#5C58D7"/>
<use xlink:href="#path2_fill" transform="translate(10758 6714)" fill="#5C58D7"/>
</g>
</g>
<defs>
<path id="path0_fill" d="M 30.1012 30.3449C 30.1012 30.474 30.1012 30.6032 30.1012 30.7323C 30.1031 30.7538 30.1031 30.7754 30.1012 30.7969C 30.0945 32.7609 29.6986 34.7043 28.936 36.5163C 28.1735 38.3283 27.0592 39.9732 25.6569 41.3573C 24.2546 42.7413 22.5917 43.8374 20.7631 44.5828C 18.9345 45.3283 16.9761 45.7085 14.9996 45.7018C 13.0231 45.6952 11.0673 45.3017 9.24388 44.544C 7.42043 43.7862 5.76503 42.679 4.37219 41.2855C 1.55924 38.4713 -0.0134527 34.6619 8.67015e-05 30.6954C 8.67015e-05 30.5847 8.67015e-05 30.474 8.67015e-05 30.3541C 8.67015e-05 30.2342 8.67015e-05 30.0221 8.67015e-05 29.8469C 8.67015e-05 29.6716 8.67015e-05 29.6716 8.67015e-05 29.5794C 0.594126 16.9526 15.046 0 15.046 0C 15.046 0 29.5072 16.9526 30.0826 29.5794C 30.0826 29.7085 30.0826 29.8376 30.0826 29.9575C 30.0826 30.0774 30.1012 30.225 30.1012 30.3449Z"/>
<path id="path1_fill" d="M 82.9986 30.3449C 82.9986 30.474 82.9986 30.6032 82.9986 30.7323C 83.0005 30.7538 83.0005 30.7754 82.9986 30.7969C 82.985 34.7621 81.3869 38.5597 78.5556 41.354C 75.7244 44.1484 71.892 45.7107 67.9016 45.6972C 63.9112 45.6838 60.0896 44.0957 57.2775 41.2823C 54.4654 38.4689 52.8932 34.6607 52.9067 30.6954C 52.9067 30.5847 52.9067 30.474 52.9067 30.3541C 52.9067 30.2342 52.9067 30.0221 52.9067 29.8469C 52.9067 29.6716 52.9067 29.6716 52.9067 29.5794C 53.4915 16.9526 67.9434 0 67.9434 0C 67.9434 0 82.3953 16.9526 82.98 29.5794C 82.98 29.7085 82.98 29.8376 82.98 29.9575C 82.98 30.0774 82.9986 30.225 82.9986 30.3449Z"/>
<path id="path2_fill" d="M 56.5449 64.0195C 56.5449 64.1486 56.5449 64.2777 56.5449 64.4069C 56.5468 64.4283 56.5468 64.4499 56.5449 64.4714C 56.434 68.3716 54.7931 72.0741 51.9727 74.7885C 49.1523 77.503 45.3757 79.0143 41.4493 78.9999C 37.5229 78.9855 33.7577 77.4464 30.9576 74.7112C 28.1575 71.9761 26.5443 68.2616 26.4624 64.3607C 26.4624 64.2501 26.4624 64.1394 26.4624 64.0195C 26.4624 63.8996 26.4624 63.6874 26.4624 63.5122C 26.4624 63.3369 26.4624 63.3369 26.4624 63.2447C 27.0472 50.6179 41.499 33.6653 41.499 33.6653C 41.499 33.6653 55.9509 50.6179 56.5264 63.2539C 56.5264 63.3831 56.5264 63.5122 56.5264 63.6321C 56.5264 63.752 56.5449 63.8903 56.5449 64.0195Z"/>
</defs>
</svg>
